# xmcd CD database file generated by OrangeCD 6.1
#
# Track frame offsets:
#	150
#	15040
#	30042
#	46940
#	59992
#	81212
#	93387
#	106910
#	125550
#	142507
#	157712
#	176120
#	191835
#
# Disc length: 6639 seconds
#
# Revision: 0
# Processed by: cddbd v1.5.2PL0 Copyright (c) Steve Scherf et al.
# Submitted via: OrangeCD 6.1
#
DISCID=9619ed0d
DTITLE=Brad Paisley - Who Needs Pictures
DYEAR=1999
DGENRE=Country
TTITLE0=Long Sermon
TTITLE1=Me Neither
TTITLE2=Who Needs Pictures
TTITLE3=Don't Breathe
TTITLE4=He Didn't Have to Be
TTITLE5=It Never Woulda Worked Out Anyway
TTITLE6=Holdin' On to You
TTITLE7=I've Been Better
TTITLE8=We Danced
TTITLE9=Sleepin' on the Foldout
TTITLE10=Cloud of Dust
TTITLE11=The Nervous Breakdown
TTITLE12=In the Garden
EXTD=
EXTT0=
EXTT1=
EXTT2=
EXTT3=
EXTT4=
EXTT5=
EXTT6=
EXTT7=
EXTT8=
EXTT9=
EXTT10=
EXTT11=
EXTT12=
PLAYORDER=
